<svg width="120" height="23" viewBox="0 0 120 23" fill="none" xmlns="http://www.w3.org/2000/svg">
<path fill-rule="evenodd" clip-rule="evenodd" d="M18.9358 1.02401C19.6221 1.26313 20.1111 1.87381 20.1944 2.59579L21.8953 17.3366H26.024C28.4749 17.3366 30.1544 16.4907 31.2268 15.3613C32.3233 14.2065 32.8984 12.6354 32.8984 11.022C32.8984 9.40857 32.3233 7.83742 31.2268 6.68265C30.1544 5.55321 28.4749 4.70733 26.024 4.70733H23.3719L22.8667 0.91854H26.024C29.419 0.91854 32.1239 2.12491 33.9744 4.07386C35.8008 5.99748 36.6872 8.53085 36.6872 11.022C36.6872 13.5131 35.8008 16.0465 33.9744 17.9701C32.1239 19.919 29.419 21.1254 26.024 21.1254H20.2076H20.2069C19.2447 21.1254 18.4353 20.404 18.325 19.4481L16.88 6.92455L6.46792 17.3366H15.1437L15.6489 21.1254H1.89445C1.12824 21.1254 0.437474 20.6638 0.144257 19.956C-0.148959 19.2481 0.0131177 18.4333 0.55491 17.8915L16.973 1.4734C17.4869 0.95949 18.2495 0.784892 18.9358 1.02401Z" fill="white"/>
<path fill-rule="evenodd" clip-rule="evenodd" d="M18.9358 1.02401C19.6221 1.26313 20.1111 1.87381 20.1944 2.59579L21.8953 17.3366H26.024C28.4749 17.3366 30.1544 16.4907 31.2268 15.3613C32.3233 14.2065 32.8984 12.6354 32.8984 11.022C32.8984 9.40857 32.3233 7.83742 31.2268 6.68265C30.1544 5.55321 28.4749 4.70733 26.024 4.70733H23.3719L22.8667 0.91854H26.024C29.419 0.91854 32.1239 2.12491 33.9744 4.07386C35.8008 5.99748 36.6872 8.53085 36.6872 11.022C36.6872 13.5131 35.8008 16.0465 33.9744 17.9701C32.1239 19.919 29.419 21.1254 26.024 21.1254H20.2076H20.2069C19.2447 21.1254 18.4353 20.404 18.325 19.4481L16.88 6.92455L6.46792 17.3366H15.1437L15.6489 21.1254H1.89445C1.12824 21.1254 0.437474 20.6638 0.144257 19.956C-0.148959 19.2481 0.0131177 18.4333 0.55491 17.8915L16.973 1.4734C17.4869 0.95949 18.2495 0.784892 18.9358 1.02401Z" fill="url(#paint0_radial_22520_7828)"/>
<path d="M79.943 8.13644C78.4499 8.13644 77.1582 8.74039 76.3697 9.76373C75.6651 8.6565 74.4572 8.13644 72.9977 8.13644C71.8905 8.13644 70.8839 8.47197 70.1122 9.07591V8.28743H67.2267V18.2189H70.1122V12.1795C70.5651 11.24 71.3201 10.6361 72.2931 10.6361C73.4506 10.6361 74.172 11.3742 74.172 12.9848V18.2189H77.0575C77.0575 18.2189 77.0575 12.3137 77.0575 12.2131C77.5105 11.2568 78.2822 10.6361 79.2552 10.6361C80.4127 10.6361 81.1341 11.3742 81.1341 12.9848V18.2189H84.0196V12.5318C84.0028 9.49531 82.3084 8.13644 79.943 8.13644Z" fill="white"/>
<path d="M51.7255 18.2021H54.8626L49.0916 5.13351H48.9239H46.139L40.368 18.2021H43.5052L44.7131 15.2831H50.5176L51.7255 18.2021ZM45.6358 13.0854L47.6321 8.27066L49.6285 13.0854H45.6358Z" fill="white"/>
<path d="M85.949 8.28743H88.8345V18.2189H85.949V8.28743ZM89.0693 5.3516C89.0693 6.27429 88.3144 7.02921 87.3917 7.02921C86.469 7.02921 85.7141 6.27429 85.7141 5.3516C85.7141 4.42891 86.469 3.67398 87.3917 3.67398C88.3144 3.67398 89.0693 4.42891 89.0693 5.3516Z" fill="white"/>
<path d="M97.5245 17.7324C96.9373 18.1518 96.065 18.3531 95.1758 18.3531C92.8272 18.3531 91.4683 17.162 91.4683 14.7965V10.5018H89.9417V8.2874H91.4683V6.07294L94.3538 5.30124V8.2874H96.8199V10.5018H94.3538V14.763C94.3538 15.6186 94.8235 16.0715 95.5952 16.0715C96.0146 16.0715 96.4508 15.9373 96.7528 15.7025L97.5245 17.7324Z" fill="white"/>
<path d="M102.557 8.13644C100.963 8.13644 99.3698 8.55585 98.2793 9.34433L99.3194 11.3575C100.041 10.7871 101.131 10.4348 102.188 10.4348C103.732 10.4348 104.47 11.1562 104.47 12.3976C103.748 12.2802 102.792 12.2298 102.188 12.2298C99.1684 12.2298 97.927 13.6222 97.927 15.367C97.927 17.0781 99.3026 18.3699 101.635 18.3699C102.96 18.3699 103.866 18.0679 104.47 17.3801V18.2189H104.654H107.355V12.5486C107.338 9.52887 105.577 8.13644 102.557 8.13644ZM102.339 16.4239C101.333 16.4239 100.712 15.9374 100.712 15.216C100.712 14.5449 101.131 14.0584 102.49 14.0584C102.49 14.0584 103.799 13.9913 104.47 14.2262C104.47 14.5114 104.47 14.8972 104.47 14.8972C104.134 15.8031 103.295 16.4239 102.339 16.4239Z" fill="white"/>
<path d="M62.3449 5.11667V9.00874C61.5564 8.47191 60.6337 8.13638 59.644 8.13638C56.8256 8.13638 54.5272 10.4179 54.5272 13.2531C54.5272 16.0883 56.8088 18.3531 59.644 18.3531C60.6673 18.3531 61.5732 18.0008 62.3449 17.4136V18.2021H65.2304V4.34497L62.3449 5.11667ZM57.3959 13.2531C57.3959 11.0051 59.8788 9.66301 62.3281 11.5252V15.0314C59.7614 16.9439 57.3959 15.3837 57.3959 13.2531Z" fill="white"/>
<path d="M116.498 5.11667V9.00874C115.71 8.47191 114.787 8.13638 113.797 8.13638C110.979 8.13638 108.68 10.4179 108.68 13.2531C108.68 16.0883 110.962 18.3698 113.797 18.3698C114.82 18.3698 115.726 18.0175 116.498 17.4304V18.2189H119.384V4.34497L116.498 5.11667ZM111.549 13.2531C111.549 11.0051 114.032 9.66301 116.481 11.5252V15.0314C113.915 16.9439 111.549 15.3837 111.549 13.2531Z" fill="white"/>
<defs>
<radialGradient id="paint0_radial_22520_7828" cx="0" cy="0" r="1" gradientUnits="userSpaceOnUse" gradientTransform="translate(29.5964 0.918487) rotate(141.021) scale(32.1235 32.0778)">
<stop stop-color="#9D70FF"/>
<stop offset="1" stop-color="#7D1EF5"/>
</radialGradient>
</defs>
</svg>
