<svg fill="none" xmlns="http://www.w3.org/2000/svg"><mask id="a" mask-type="alpha" maskUnits="userSpaceOnUse" x="3" y="5" width="18" height="14"><rect x="3" y="5" width="18" height="14" rx="2" fill="#C4C4C4"/></mask><g mask="url(#a)"><path d="M3 6.4h18v11.2H3V6.4z" fill="#F3F3F3"/><path d="M21 17.413H3V19h18v-1.587zM21 14.333H3v1.587h18v-1.587zM21 11.253H3v1.587h18v-1.587zM21 8.08H3v1.587h18V8.08zM21 5H3v1.587h18V5z" fill="#BD3D44"/><path fill-rule="evenodd" clip-rule="evenodd" d="M3 5h9v7.747H3V5z" fill="#192F5D"/><path d="M10.56 11.627c.248 0 .45-.21.45-.467a.459.459 0 0 0-.45-.467.459.459 0 0 0-.45.467c0 .258.202.467.45.467zM8.58 11.627c.249 0 .45-.21.45-.467a.459.459 0 0 0-.45-.467.459.459 0 0 0-.45.467c0 .258.201.467.45.467zM6.6 11.627c.249 0 .45-.21.45-.467a.459.459 0 0 0-.45-.467.459.459 0 0 0-.45.467c0 .258.201.467.45.467zM4.62 11.627c.249 0 .45-.21.45-.467a.459.459 0 0 0-.45-.467.459.459 0 0 0-.45.467c0 .258.201.467.45.467zM10.56 9.293c.248 0 .45-.209.45-.466a.459.459 0 0 0-.45-.467.459.459 0 0 0-.45.467c0 .257.202.466.45.466zM8.58 9.293c.249 0 .45-.209.45-.466a.459.459 0 0 0-.45-.467.459.459 0 0 0-.45.467c0 .257.201.466.45.466zM6.6 9.293c.249 0 .45-.209.45-.466a.459.459 0 0 0-.45-.467.459.459 0 0 0-.45.467c0 .257.201.466.45.466zM4.62 9.293c.249 0 .45-.209.45-.466a.459.459 0 0 0-.45-.467.459.459 0 0 0-.45.467c0 .257.201.466.45.466zM10.56 6.96c.248 0 .45-.209.45-.467a.459.459 0 0 0-.45-.466.459.459 0 0 0-.45.466c0 .258.202.467.45.467zM8.58 6.96c.249 0 .45-.209.45-.467a.459.459 0 0 0-.45-.466.459.459 0 0 0-.45.466c0 .258.201.467.45.467zM6.6 6.96c.249 0 .45-.209.45-.467a.459.459 0 0 0-.45-.466.459.459 0 0 0-.45.466c0 .258.201.467.45.467zM4.62 6.96c.249 0 .45-.209.45-.467a.459.459 0 0 0-.45-.466.459.459 0 0 0-.45.466c0 .258.201.467.45.467z" fill="#BDC5FF"/></g></svg>