<svg fill="none" xmlns="http://www.w3.org/2000/svg"><mask id="a" mask-type="alpha" maskUnits="userSpaceOnUse" x="3" y="5" width="18" height="14"><rect x="3" y="5" width="18" height="14" rx="2" fill="#C4C4C4"/></mask><g mask="url(#a)"><path d="M3 5h18v14H3V5z" fill="#C60B1E"/><path d="M3 8.547h18v7H3v-7z" fill="#FFC400"/><path d="m11.01 11.907.27-1.214c0-.093-.09-.186-.18-.186h-.18c-.09 0-.18.093-.18.186l.27 1.214zM6.42 11.907l.27-1.214c0-.093-.09-.186-.18-.186h-.18c-.09 0-.18.093-.18.186l.27 1.214z" fill="#C60B1E"/><path d="M11.28 11.253h-.63v2.707h.63v-2.707zM6.78 11.253h-.63v2.707h.63v-2.707zM8.4 10.133c-.27 0-.45-.186-.45-.466s.18-.467.45-.467.45.187.45.467-.18.466-.45.466zm0-.56c-.09 0-.18 0-.18.094 0 .093.09.186.18.186s.18-.093.18-.186c0-.094-.09-.094-.18-.094z" fill="#F5F5F5"/><path d="M9.03 10.133c-.27 0-.45-.186-.45-.466s.18-.467.45-.467.45.187.45.467-.18.466-.45.466zm0-.56c-.09 0-.18 0-.18.094 0 .093.09.186.18.186s.18-.093.18-.186c0-.094-.09-.094-.18-.094z" fill="#F5F5F5"/><path d="M9.66 10.507c-.27 0-.45-.187-.45-.467s.18-.467.45-.467.45.187.45.467-.27.467-.45.467zm0-.654c-.09 0-.18.094-.18.187s.09.187.18.187.18-.094.18-.187c-.09-.093-.09-.187-.18-.187zM7.77 10.507c-.27 0-.45-.187-.45-.467s.18-.467.45-.467.45.187.45.467c0 .187-.18.467-.45.467zm0-.654c-.09 0-.18.094-.18.187s.09.187.18.187.18-.094.18-.187-.09-.187-.18-.187zM7.5 10.973c-.18 0-.27.187-.27.28v2.054c0 .373.36 1.12 1.53 1.12s1.44-.747 1.44-1.12v-2.054c0-.186-.18-.28-.27-.28H7.5z" fill="#F5F5F5"/><path d="M7.23 12.56h1.53v.747c0 .466-.36.746-.72.746-.54 0-.81-.28-.81-.746v-.747z" fill="#FFC400"/><path d="M11.46 11.907H9.93v.28h1.53v-.28zM11.46 13.12l-.9-.28v-.28l.9.28v.28zM7.5 11.907H5.97v.28H7.5v-.28zM5.97 13.12l.9-.28v-.28l-.9.28v.28zM7.77 10.6l-.27-.28.18-.187c.27-.28.63-.466 1.08-.466.36 0 .72.186.99.466l.18.187-.27.28H7.77z" fill="#C60B1E"/><path d="M8.76 12.56H7.23v-1.307c0-.186.18-.28.27-.28h1.17v1.587h.09zM8.76 12.56h1.44v.747c0 .466-.36.746-.72.746-.45 0-.72-.373-.72-.746v-.747z" fill="#C60B1E"/><path d="M8.4 13.96v-1.493h-.27v1.586c.09 0 .18-.093.27-.093zM7.77 14.053v-1.586H7.5v1.4c.09.093.18.186.27.186z" fill="#C60B1E"/><path d="M8.4 11.907h-.9v.28h.9v-.28zM8.4 11.253h-.9v.28h.9v-.28z" fill="#FFC400"/><path d="M8.31 11.44h-.63V12h.63v-.56zM9.66 13.12v.187c0 .093-.09.186-.18.186s-.18-.093-.18-.186v-.187h.36zm.27-.28h-.9v.467c0 .28.18.466.45.466s.45-.186.45-.466v-.467zM9.48 12.187c-.18 0-.27-.094-.27-.28v-.374c0-.186.18-.28.27-.28.18 0 .27.187.27.28v.28c0 .28-.09.374-.27.374zM8.76 10.507c.1 0 .18-.084.18-.187a.183.183 0 0 0-.18-.187c-.1 0-.18.084-.18.187s.08.187.18.187zM8.13 10.507c.1 0 .18-.084.18-.187a.183.183 0 0 0-.18-.187c-.1 0-.18.084-.18.187s.08.187.18.187zM9.3 10.507c.1 0 .18-.084.18-.187a.183.183 0 0 0-.18-.187c-.1 0-.18.084-.18.187s.08.187.18.187z" fill="#FFC400"/><path d="M7.05 14.053H5.88v.28h1.17v-.28zM11.55 14.053h-1.17v.28h1.17v-.28zM8.76 13.027c.249 0 .45-.21.45-.467a.459.459 0 0 0-.45-.467.459.459 0 0 0-.45.467c0 .258.201.467.45.467z" fill="#008"/><path d="M9.57 10.6h-1.8v.28h1.8v-.28z" fill="#FAB446"/></g></svg>