<svg viewBox="0 0 24 24" fill="none" xmlns="http://www.w3.org/2000/svg"><path d="M12 18.563c-.79 0-1.58-.167-2.348-.465m10.675-5.659c-1.774 3.28-5.05 6.123-8.327 6.123m6.637-9.449a14.187 14.187 0 011.69 2.45.925.925 0 010 .876M5.438 18.563L18.563 5.438m-8.651 8.65A2.954 2.954 0 0114.09 9.91" stroke="currentColor" stroke-width="1.5" stroke-linecap="round" stroke-linejoin="round"/><path d="M16.729 7.271C15.279 6.15 13.639 5.438 12 5.438c-3.277 0-6.553 2.843-8.327 6.124a.925.925 0 000 .877c.887 1.64 2.149 3.17 3.598 4.29" stroke="currentColor" stroke-width="1.5" stroke-linecap="round" stroke-linejoin="round"/></svg>