<svg viewBox="0 0 40 22" fill="none" xmlns="http://www.w3.org/2000/svg"><path fill-rule="evenodd" clip-rule="evenodd" d="M20.616.115a2.06 2.06 0 011.37 1.711l1.852 16.049h4.495c2.669 0 4.497-.92 5.665-2.15 1.194-1.258 1.82-2.968 1.82-4.725 0-1.757-.627-3.467-1.82-4.724-1.168-1.23-2.996-2.151-5.665-2.151h-2.887L24.896 0h3.437c3.697 0 6.641 1.313 8.656 3.435C38.978 5.53 39.943 8.288 39.943 11c0 2.712-.965 5.47-2.954 7.565C34.974 20.687 32.03 22 28.333 22H22a2.063 2.063 0 01-2.049-1.826L18.378 6.539 7.042 17.875h9.446l.55 4.125H2.063a2.062 2.062 0 01-1.459-3.52L18.48.603c.56-.56 1.39-.75 2.137-.49z" fill="currentColor"/><path fill-rule="evenodd" clip-rule="evenodd" d="M20.616.115a2.06 2.06 0 011.37 1.711l1.852 16.049h4.495c2.669 0 4.497-.92 5.665-2.15 1.194-1.258 1.82-2.968 1.82-4.725 0-1.757-.627-3.467-1.82-4.724-1.168-1.23-2.996-2.151-5.665-2.151h-2.887L24.896 0h3.437c3.697 0 6.641 1.313 8.656 3.435C38.978 5.53 39.943 8.288 39.943 11c0 2.712-.965 5.47-2.954 7.565C34.974 20.687 32.03 22 28.333 22H22a2.063 2.063 0 01-2.049-1.826L18.378 6.539 7.042 17.875h9.446l.55 4.125H2.063a2.062 2.062 0 01-1.459-3.52L18.48.603c.56-.56 1.39-.75 2.137-.49z" fill="currentColor"/><defs><radialGradient id="paint0_radial" cx="0" cy="0" r="1" gradientUnits="userSpaceOnUse" gradientTransform="matrix(-27.18797 21.99989 -21.96862 -27.14933 32.223 0)"><stop stop-color="#9D70FF"/><stop offset="1" stop-color="#7D1EF5"/></radialGradient></defs></svg>