<svg width="24" height="25" viewBox="0 0 24 25" fill="none" xmlns="http://www.w3.org/2000/svg">
<g clip-path="url(#clip0_459_4430)">
<path fill-rule="evenodd" clip-rule="evenodd" d="M17 2.38672H7C6.44772 2.38672 6 2.83443 6 3.38672V21.3867C6 21.939 6.44772 22.3867 7 22.3867H17C17.5523 22.3867 18 21.939 18 21.3867V3.38672C18 2.83443 17.5523 2.38672 17 2.38672ZM7 0.386719C5.34315 0.386719 4 1.72986 4 3.38672V21.3867C4 23.0436 5.34315 24.3867 7 24.3867H17C18.6569 24.3867 20 23.0436 20 21.3867V3.38672C20 1.72986 18.6569 0.386719 17 0.386719H7Z" fill="#12131A"/>
<path d="M13 19.3867C13 19.939 12.5523 20.3867 12 20.3867C11.4477 20.3867 11 19.939 11 19.3867C11 18.8344 11.4477 18.3867 12 18.3867C12.5523 18.3867 13 18.8344 13 19.3867Z" fill="#12131A"/>
</g>
<defs>
<clipPath id="clip0_459_4430">
<rect width="24" height="24" fill="white" transform="translate(0 0.386719)"/>
</clipPath>
</defs>
</svg>
