<svg fill="none" xmlns="http://www.w3.org/2000/svg"><mask id="a" mask-type="alpha" maskUnits="userSpaceOnUse" x="3" y="5" width="18" height="14"><rect x="3" y="5" width="18" height="14" rx="2" fill="#C4C4C4"/></mask><g mask="url(#a)"><path d="M3 5h18v14H3V5z" fill="#229E45"/><path fill-rule="evenodd" clip-rule="evenodd" d="M12 16.387 18.48 12 12 7.613 5.52 12 12 16.387z" fill="#F8E509"/><path fill-rule="evenodd" clip-rule="evenodd" d="M14.88 12c0 1.587-1.26 2.8-2.79 2.8s-2.7-1.307-2.7-2.893c0-1.587 1.26-2.8 2.79-2.8 1.44.093 2.7 1.306 2.7 2.893z" fill="#2B49A3"/><path fill-rule="evenodd" clip-rule="evenodd" d="M14.7 13.027c.09-.187.09-.28.09-.467-1.44-1.307-3.06-2.053-5.13-1.867-.09.187-.09.28-.18.467 2.43-.187 4.23.933 5.22 1.867z" fill="#fff"/><path d="M12.99 11.066c.1 0 .18-.084.18-.187a.183.183 0 0 0-.18-.187c-.1 0-.18.084-.18.187s.08.187.18.187zM9.84 11.907c.1 0 .18-.084.18-.187a.183.183 0 0 0-.18-.187c-.1 0-.18.084-.18.187s.08.187.18.187zM11.1 12.187c.05 0 .09-.042.09-.094A.092.092 0 0 0 11.1 12c-.05 0-.09.042-.09.093 0 .052.04.094.09.094zM12.09 12.56c.1 0 .18-.084.18-.187a.183.183 0 0 0-.18-.186c-.1 0-.18.083-.18.186s.08.187.18.187zM12.99 14.24c.1 0 .18-.084.18-.187a.183.183 0 0 0-.18-.186c-.1 0-.18.083-.18.186s.08.187.18.187zM12.18 13.493c.1 0 .18-.083.18-.186a.183.183 0 0 0-.18-.187c-.1 0-.18.084-.18.187s.08.186.18.186zM11.1 13.773c.1 0 .18-.083.18-.186a.183.183 0 0 0-.18-.187c-.1 0-.18.083-.18.187 0 .103.08.186.18.186zM10.11 12.933c.1 0 .18-.083.18-.186a.183.183 0 0 0-.18-.187c-.1 0-.18.084-.18.187s.08.186.18.186zM14.07 13.12c.05 0 .09-.042.09-.093a.092.092 0 0 0-.09-.094c-.05 0-.09.042-.09.094 0 .051.04.093.09.093z" fill="#fff"/></g></svg>