<svg fill="none" xmlns="http://www.w3.org/2000/svg"><mask id="a" mask-type="alpha" maskUnits="userSpaceOnUse" x="3" y="5" width="18" height="14"><rect x="3" y="5" width="18" height="14" rx="2" fill="#C4C4C4"/></mask><g mask="url(#a)" fill-rule="evenodd" clip-rule="evenodd"><path d="M3 5h18v14H3V5z" fill="#F31930"/><path d="M14.446 12.218c0 1.931-1.536 3.497-3.43 3.497-1.895 0-3.43-1.566-3.43-3.497 0-1.931 1.535-3.497 3.43-3.497 1.894 0 3.43 1.566 3.43 3.497z" fill="#fff"/><path d="M14.618 12.218c0 1.545-1.229 2.797-2.745 2.797-1.515 0-2.744-1.252-2.744-2.797 0-1.545 1.229-2.798 2.745-2.798 1.515 0 2.744 1.253 2.744 2.798z" fill="#F31830"/><path d="m15.114 10.584-.028 1.293-1.162.327 1.146.424-.028 1.185.748-.926 1.13.407-.654-.994.797-.987-1.223.35-.726-1.079z" fill="#fff"/></g></svg>